<?xml version="1.0" encoding="UTF-8"?>
<svg width="700pt" height="700pt" version="1.1" viewBox="0 0 700 700" xmlns="http://www.w3.org/2000/svg">
 <path d="m349.58 0c-51.805 0.097656-96.957 33.68-112.88 81.762-14.934-6.4766-31.074-9.8906-47.465-9.8867-65.711 0-119.24 53.492-119.24 119.16 0 47.426 28.191 90.082 71.137 109v248.04l0.003907-0.003907c0 6.5859 5.3438 11.926 11.934 11.93h393.46c6.5898 0 11.934-5.3398 11.934-11.93v-247.86c43.156-18.824 71.535-61.594 71.535-109.18 0-65.668-53.531-119.16-119.25-119.16-16.516 0-32.773 3.4648-47.801 10.039-15.895-48.23-61.199-81.914-113.15-81.91h-0.36328-0.019531zm0.023437 23.855h0.38281c45.926 0 85.195 32.523 93.711 77.617l0.003907 0.003906c0.72656 3.8398 3.2891 7.082 6.8594 8.6758 3.5703 1.5938 7.6953 1.3398 11.043-0.67969 14.887-8.9922 31.945-13.742 49.34-13.742 52.809 0 95.371 42.527 95.371 95.305 0 40.43-25.438 76.375-63.578 89.855v-0.003906c-4.7695 1.6836-7.957 6.1914-7.957 11.246v196.78-0.003906c-1-0.26562-2.0312-0.40234-3.0664-0.40234h-363.43c-1.0312 0-2.0625 0.13672-3.0625 0.40234v-196.92 0.003907c0-5.0391-3.168-9.5352-7.9141-11.23-37.961-13.582-63.227-49.434-63.227-89.727 0-52.777 42.559-95.305 95.371-95.305 17.27 0 34.211 4.6875 49.023 13.555h0.003906c3.3438 2 7.457 2.2461 11.016 0.65234 3.5586-1.5938 6.1133-4.8203 6.8438-8.6484 8.582-44.93 47.707-77.336 93.477-77.434zm-88.828 282.73 0.003906 0.003906c-6.5938 0-11.938 5.3398-11.938 11.926v127.09c0 3.1641 1.2539 6.1992 3.4961 8.4375 2.2383 2.2383 5.2734 3.4961 8.4414 3.4961 3.168 0 6.2031-1.2578 8.4414-3.4961 2.2383-2.2383 3.4922-5.2734 3.4922-8.4375v-127.09c0-6.5859-5.3438-11.926-11.934-11.926zm89.027 0 0.003907 0.003906c-6.5898 0-11.934 5.3398-11.934 11.926v127.09c-0.003906 3.1641 1.2539 6.1992 3.4922 8.4375 2.2383 2.2383 5.2734 3.4961 8.4414 3.4961 3.1641 0 6.1992-1.2578 8.4375-3.4961 2.2383-2.2383 3.4961-5.2734 3.4922-8.4375v-127.09c0-6.5859-5.3398-11.926-11.93-11.926zm89.027 0v0.003906c-6.5898 0-11.934 5.3398-11.934 11.926v127.09c-0.003906 3.1641 1.2539 6.1992 3.4922 8.4375 2.2383 2.2383 5.2773 3.4961 8.4414 3.4961 3.168 0 6.2031-1.2578 8.4414-3.4961 2.2383-2.2383 3.4961-5.2734 3.4922-8.4375v-127.09c0-6.5859-5.3438-11.926-11.934-11.926zm-273.82 205.36v0.003906c1 0.26562 2.0312 0.40234 3.0664 0.40234h363.43c1.0352 0 2.0664-0.13672 3.0625-0.40234v24.191h-369.59z"/>
</svg>
